HIERARCHY
ROOT Hips
{
	OFFSET -3.958830 18.904000 13.208200
	CHANNELS 6 Xposition Yposition Zposition Zrotation Yrotation Xrotation 
	JOINT LHipJoint
	{
		OFFSET 0.000000 0.000000 0.000000
		CHANNELS 3 Zrotation Yrotation Xrotation
		JOINT LeftUpLeg
		{
			OFFSET 1.800000 -1.400000 0.085000
			CHANNELS 3 Zrotation Yrotation Xrotation
			JOINT LeftLeg
			{
				OFFSET 2.215000 -6.000000 0.000000
				CHANNELS 3 Zrotation Yrotation Xrotation
				JOINT LeftFoot
				{
					OFFSET 2.500000 -6.900000 0.000000
					CHANNELS 3 Zrotation Yrotation Xrotation
					JOINT LeftToeBase
					{
						OFFSET 0.200000 -0.500000 1.950000
						CHANNELS 3 Zrotation Yrotation Xrotation
						End Site
						{
							OFFSET 0.000000 0.000000 0.000000
						}
					}
				}
			}
		}
	}
	JOINT RHipJoint
	{
		OFFSET 0.000000 0.000000 0.000000
		CHANNELS 3 Zrotation Yrotation Xrotation
		JOINT RightUpLeg
		{
			OFFSET -1.800000 -1.400000 0.085000
			CHANNELS 3 Zrotation Yrotation Xrotation
			JOINT RightLeg
			{
				OFFSET -2.215000 -6.000000 0.000000
				CHANNELS 3 Zrotation Yrotation Xrotation
				JOINT RightFoot
				{
					OFFSET -2.500000 -6.900000 0.000000
					CHANNELS 3 Zrotation Yrotation Xrotation
					JOINT RightToeBase
					{
						OFFSET -0.200000 -0.500000 1.950000
						CHANNELS 3 Zrotation Yrotation Xrotation
						End Site
						{
							OFFSET 0.000000 0.000000 0.000000
						}
					}
				}
			}
		}
	}
	JOINT LowerBack
	{
		OFFSET 0.000000 0.000000 0.000000
		CHANNELS 3 Zrotation Yrotation Xrotation
		JOINT Spine
		{
			OFFSET -0.087000 1.940000 -0.288900
			CHANNELS 3 Zrotation Yrotation Xrotation
			JOINT Spine1
			{
				OFFSET 0.000000 1.950000 0.060000
				CHANNELS 3 Zrotation Yrotation Xrotation
				JOINT Neck
				{
					OFFSET 0.000000 0.000000 0.000000
					CHANNELS 3 Zrotation Yrotation Xrotation
					JOINT Neck1
					{
						OFFSET 0.000000 1.600000 0.340000
						CHANNELS 3 Zrotation Yrotation Xrotation
						JOINT Head
						{
							OFFSET 0.000000 1.667000 -0.240000
							CHANNELS 3 Zrotation Yrotation Xrotation
							End Site
							{
								OFFSET 0.000000 0.000000 0.000000
							}
						}
					}
				}
				JOINT LeftShoulder
				{
					OFFSET 0.000000 0.000000 0.000000
					CHANNELS 3 Zrotation Yrotation Xrotation
					JOINT LeftArm
					{
						OFFSET 2.700000 1.550000 -0.730000
						CHANNELS 3 Zrotation Yrotation Xrotation
						JOINT LeftForeArm
						{
							OFFSET 5.450000 0.000000 0.000000
							CHANNELS 3 Zrotation Yrotation Xrotation
							JOINT LeftHand
							{
								OFFSET 3.450000 0.000000 0.000000
								CHANNELS 3 Zrotation Yrotation Xrotation
								JOINT LeftHandIndex1
								{
									OFFSET 0.750000 0.000000 0.000000
									CHANNELS 3 Zrotation Yrotation Xrotation
									End Site
									{
										OFFSET 0.000000 0.000000 0.000000
									}
								}
							}
						}
					}
				}
				JOINT RightShoulder
				{
					OFFSET 0.000000 0.000000 0.000000
					CHANNELS 3 Zrotation Yrotation Xrotation
					JOINT RightArm
					{
						OFFSET -2.700000 1.550000 -0.730000
						CHANNELS 3 Zrotation Yrotation Xrotation
						JOINT RightForeArm
						{
							OFFSET -5.450000 0.000000 0.000000
							CHANNELS 3 Zrotation Yrotation Xrotation
							JOINT RightHand
							{
								OFFSET -3.450000 0.000000 0.000000
								CHANNELS 3 Zrotation Yrotation Xrotation
								JOINT RightHandIndex1
								{
									OFFSET -0.750000 0.000000 0.000000
									CHANNELS 3 Zrotation Yrotation Xrotation
									End Site
									{
										OFFSET 0.000000 0.000000 0.000000
									}
								}
							}
						}
					}
				}
			}
		}
	}
}
MOTION
Frames: 4
Frame Time: 0.016667
-0.886220 17.744380 -0.279190 -2.801335 -14.989172 7.022881 -14.768807 12.069375 2.611511 5.503438 -2.324653 -17.692001 -9.707460 6.688195 15.465093 0.385807 3.797560 3.393950 -0.022400 0.015390 0.017470 18.720345 -11.753262 2.804851 -3.013971 1.086693 -16.689735 7.063146 -4.340122 11.155549 0.312750 -3.661683 3.122707 -0.038270 0.484470 0.273660 -4.683940 2.119392 -6.479102 13.100194 2.182162 -1.091276 -10.059970 2.038990 9.908173 5.755806 8.952961 -9.150970 16.827164 -22.834064 17.328977 -9.050550 -12.455080 14.023040 -14.499983 -7.092415 3.859981 -43.943950 -6.361371 -6.673237 9.167862 -24.802626 -2.138361 -4.045163 3.592767 -0.767540 0.543090 -0.374160 0.204380 2.692420 0.870770 6.850400 55.542461 -2.157210 -8.444318 0.502301 30.845376 -2.786427 2.682796 -2.176141 0.170060 -0.304140 -0.272330 0.402630 
-0.879250 17.733200 -0.279610 -3.151288 -14.867122 7.210261 -14.728842 12.004874 2.617239 5.924980 -2.403728 -18.046123 -9.855124 6.782699 15.887233 0.317971 3.837148 3.337887 0.016190 0.028000 0.092450 18.762236 -11.780254 2.851738 -2.550939 1.063332 -16.165480 6.754411 -4.146980 10.048294 0.270186 -3.573238 3.130761 -0.028370 0.411700 0.262980 -4.802837 2.291512 -6.536332 14.249860 2.393478 -0.814084 -10.775092 2.315534 9.469503 6.179599 9.299163 -9.110852 17.206910 -21.866274 18.674370 -8.671010 -11.415840 12.782600 -15.144050 -6.944223 3.625481 -43.298022 -6.388931 -6.645671 8.892653 -25.336306 -2.147192 -3.997780 3.544051 -0.665750 0.487550 -0.322340 0.168040 2.473997 0.453499 7.014124 55.846512 -2.592147 -8.520892 0.940266 29.923128 -2.582078 2.677769 -2.120970 0.149950 -0.301750 -0.273410 0.342300 
-0.868770 17.722760 -0.276120 -3.717347 -14.568812 7.282415 -14.670713 11.953320 2.622322 6.574393 -2.421221 -18.290728 -10.035828 6.912359 16.320925 0.296876 3.849924 3.277019 0.050600 0.062340 0.150980 18.817715 -11.825908 2.904477 -1.813090 1.020410 -15.620916 6.200340 -3.948652 9.196395 0.217150 -3.458767 3.151504 -0.030270 0.318670 0.243240 -4.964325 2.476489 -6.614841 15.812645 2.483115 -0.421505 -11.543192 2.504600 8.975971 6.487689 9.520452 -9.076296 17.288051 -20.812532 20.821753 -8.050110 -10.562160 11.439150 -15.380680 -6.556033 3.386103 -43.328640 -6.637745 -6.742799 9.055404 -26.385533 -2.264919 -3.920435 3.499095 -0.573620 0.408300 -0.246980 0.134820 2.046929 -0.112338 7.175513 56.287726 -2.954265 -8.619750 1.398268 29.072819 -2.342239 2.699246 -2.048873 0.157870 -0.303280 -0.281650 0.303540 
-0.864480 17.711910 -0.274680 -4.224173 -14.196055 7.161352 -14.619751 11.924291 2.642546 7.328549 -2.426075 -18.343312 -10.489025 7.113394 16.678340 0.307179 3.905210 3.208748 0.121940 0.112610 0.237540 18.864776 -11.849361 2.946122 -1.063263 0.951096 -14.995921 5.669337 -3.810358 8.604886 0.138231 -3.352993 3.173276 -0.037480 0.216550 0.247070 -5.103094 2.569715 -6.703390 16.983066 2.530152 0.115641 -11.927223 2.637232 8.508006 6.605145 9.731708 -9.079748 17.321741 -19.687810 23.862210 -7.110960 -9.902000 10.047180 -15.457886 -6.172954 3.218278 -43.841516 -7.022194 -6.951839 10.039445 -27.973913 -2.655855 -3.814252 3.472334 -0.464430 0.314830 -0.147930 0.127470 1.868143 -0.677149 7.249297 56.497842 -3.240812 -8.716118 1.701690 28.412774 -2.108080 2.727209 -1.982062 0.186700 -0.316300 -0.317980 0.269890 
